# xmcd CD database file
#
# Track frame offsets:
#	150
#	17631
#	34001
#	52590
#	72074
#	84844
#	102135
#	117947
#	136884
#	151200
#	167571
#	183170
#	196669
#	212995
#	227116
#	243567
#	262981
#	279673
#	296513
#	308507
#	322663
#
# Disc length: 4473 seconds
#
# Revision: 1
# Processed by: cddbd v1.5.2PL0 Copyright (c) Steve Scherf et al.
# Submitted via: CDex 1.51
#
DISCID=07117715
DTITLE=Kenny Rogers - The Premier Collection
DYEAR=1900
DGENRE=Country
TTITLE0=Lady
TTITLE1=Lucille
TTITLE2=You've Lost That Loving Feeling
TTITLE3=Coward of the County
TTITLE4=Ruby don't take your Love to Town
TTITLE5=We've got Tonight
TTITLE6=The Gambler
TTITLE7=She Believes in Me
TTITLE8=You Needed Me
TTITLE9=You Decorated My Love
TTITLE10=I don't Need You
TTITLE11=Everytime Two Fools Collide
TTITLE12=Love will turn you Around
TTITLE13=Hey Won't you Play
TTITLE14=Don't fall in Love with a Dreamer
TTITLE15=Sweet Music Man
TTITLE16=Love Lifted Me
TTITLE17=Desperado
TTITLE18=Reuden James
TTITLE19=Daytime Friends
TTITLE20=Love or Something Like It
EXTD=
EXTT0=
EXTT1=
EXTT2=
EXTT3=
EXTT4=
EXTT5=
EXTT6=
EXTT7=
EXTT8=
EXTT9=
EXTT10=
EXTT11=
EXTT12=
EXTT13=
EXTT14=
EXTT15=
EXTT16=
EXTT17=
EXTT18=
EXTT19=
EXTT20=
PLAYORDER=
